<?xml version="1.0" encoding="UTF-8"?>
<svg version="1.1" xmlns="http://www.w3.org/2000/svg" width="500" height="500">
<path d="M0 0 C1.15685303 0.07839111 2.31370605 0.15678223 3.50561523 0.23754883 C22.88451855 1.69701855 22.88451855 1.69701855 25.3125 4.125 C25.79683737 10.94826973 24.34550387 16.71445835 22.48828125 23.25 C22.19070419 24.32880936 21.89312714 25.40761871 21.58653259 26.51911926 C20.60856218 30.05703815 19.6166375 33.59089009 18.625 37.125 C17.9379892 39.60344449 17.2521314 42.08220885 16.56738281 44.5612793 C15.16630515 49.63101188 13.76085715 54.69949973 12.35205078 59.76708984 C9.37808133 70.47858479 6.46584041 81.20668409 3.5625 91.9375 C3.29288452 92.93276703 3.02326904 93.92803406 2.7454834 94.95346069 C-0.98417384 108.72562836 -4.64746156 122.51363023 -8.24612427 136.32055664 C-13.24892329 155.51256977 -18.31985275 174.68647698 -23.3977356 193.85873413 C-24.36940415 197.52750401 -25.34032551 201.19647018 -26.31051636 204.8656311 C-28.79874484 214.27430908 -31.29534061 223.68063709 -33.81113911 233.08198452 C-35.02897388 237.63814353 -36.23102837 242.19799986 -37.41706753 246.76253605 C-37.95294643 248.81757121 -38.49523239 250.87078611 -39.0403595 252.92338562 C-39.68956857 255.36948587 -40.32839393 257.81837867 -40.95414734 260.27058411 C-42.6397294 266.54432777 -44.3731173 271.21267604 -48.6875 276.125 C-55.09838712 279.44341074 -61.82593841 279.99691044 -68.9375 280.75 C-69.99324219 280.87117188 -71.04898438 280.99234375 -72.13671875 281.1171875 C-75.3183914 281.47546643 -78.50174058 281.8052582 -81.6875 282.125 C-82.6261792 282.22433838 -83.5648584 282.32367676 -84.53198242 282.42602539 C-92.73693765 283.21554684 -100.91403711 283.31116088 -109.1496582 283.31030273 C-111.48602604 283.31248694 -113.82191833 283.33071097 -116.15820312 283.34960938 C-128.63880606 283.39702095 -140.81149638 282.42585809 -152.9375 279.25 C-154.15953125 278.94320313 -155.3815625 278.63640625 -156.640625 278.3203125 C-160.06078912 276.97855581 -160.77798637 276.16588157 -162.6875 273.125 C-163.57797241 270.71694946 -163.57797241 270.71694946 -164.32177734 267.95947266 C-164.61267242 266.89586517 -164.9035675 265.83225769 -165.20327759 264.73641968 C-165.67113174 262.96810287 -165.67113174 262.96810287 -166.1484375 261.1640625 C-166.49039154 259.89777008 -166.83234558 258.63147766 -167.18466187 257.32681274 C-168.36861094 252.93049227 -169.52972107 248.52827447 -170.6875 244.125 C-170.89810562 243.32474899 -171.10871124 242.52449799 -171.32569885 241.69999695 C-174.48386186 229.69091807 -177.60426259 217.67208902 -180.71835327 205.65151978 C-183.47077307 195.02762517 -186.23267533 184.40619452 -188.99609375 173.78515625 C-189.27626909 172.70820433 -189.55644444 171.6312524 -189.84510994 170.52166557 C-195.39957601 149.1774695 -201.02547227 127.85257467 -206.68522644 106.53608322 C-207.59960791 103.09133487 -208.51294212 99.64630919 -209.42632103 96.2012949 C-213.2957507 81.60855847 -217.17176429 67.01774532 -221.09877014 52.44038391 C-222.45141845 47.41870295 -223.79594747 42.39485139 -225.14028931 37.37094116 C-226.02974355 34.05945406 -226.92997456 30.75103221 -227.83081055 27.44262695 C-228.35394147 25.48925259 -228.8765227 23.53573089 -229.3984375 21.58203125 C-229.63471359 20.72794678 -229.87098969 19.8738623 -230.11442566 18.99389648 C-231.46429687 13.88165818 -231.90946142 9.41381781 -231.6875 4.125 C-229.5853514 3.63705602 -227.4806305 3.16019256 -225.375 2.6875 C-224.20324219 2.42066406 -223.03148437 2.15382813 -221.82421875 1.87890625 C-210.65727567 -0.30353157 -199.26911221 -0.09252433 -187.93774414 -0.11523438 C-185.02395863 -0.12492036 -182.11088591 -0.1560147 -179.19726562 -0.1875 C-150.7056748 -0.35354162 -150.7056748 -0.35354162 -139.6875 7.125 C-136.978411 10.87021245 -136.00997624 14.303174 -135.13208008 18.81103516 C-135.00096832 19.4701335 -134.86985657 20.12923185 -134.73477173 20.80830288 C-134.29957036 23.00851063 -133.87832014 25.21115196 -133.45703125 27.4140625 C-133.14687006 28.99759188 -132.83586915 30.58095698 -132.52409363 32.16416931 C-131.68045146 36.46142724 -130.84899061 40.76096191 -130.01977539 45.06102371 C-129.14959364 49.56277222 -128.26839296 54.06236375 -127.38867188 58.56225586 C-125.33290643 69.09112669 -123.29563059 79.62353783 -121.26111603 90.15653229 C-120.49220365 94.13566026 -119.72201225 98.11454017 -118.95176792 102.09341049 C-114.17547008 126.76647326 -109.42077908 151.44364921 -104.6875 176.125 C-101.15178446 159.61687844 -97.96483946 143.068575 -95 126.44921875 C-94.5710315 124.05949901 -94.14174359 121.66983659 -93.7121582 119.28022766 C-92.59334742 113.05248595 -91.4783564 106.824067 -90.36437988 100.59545898 C-88.800523 91.85534629 -87.23146271 83.11616604 -85.6628418 74.37690735 C-84.63657005 68.65922215 -83.61304387 62.94104981 -82.59031677 57.22272968 C-82.01782274 54.03279076 -81.4395699 50.84393355 -80.86083984 47.65512085 C-80.02169697 43.0222903 -79.21644017 38.38465179 -78.42431641 33.74356079 C-77.99792059 31.3066261 -77.57133068 28.86972536 -77.14453125 26.43286133 C-76.95767258 25.30436358 -76.7708139 24.17586584 -76.57829285 23.0131712 C-74.23027984 9.79767539 -74.23027984 9.79767539 -69.0337677 5.87742329 C-50.56271083 -5.28497005 -20.39012619 -1.41082446 0 0 Z " fill="#FFFFFF" transform="translate(236.6875,118.875)"/>
<path d="M0 0 C2.48547219 0.0031628 4.96975133 -0.02042877 7.45507812 -0.0456543 C31.01831568 -0.13895621 58.97699555 3.95321209 77.11914062 20.31567383 C81.67346343 29.42431944 77.33156595 45.38885796 74.48486328 54.30151367 C69.80841207 68.24481794 63.82622784 82.84428235 51.11914062 91.31567383 C42.93406033 93.19940921 36.20830746 89.4077349 29.01367188 86.06958008 C14.67367476 79.46367 -1.73540636 78.67844713 -16.84179688 83.20239258 C-20.81293485 84.74808167 -24.57774071 86.65053193 -28.38085938 88.56567383 C-31.88085938 90.31567383 -31.88085938 90.31567383 -33.88085938 90.31567383 C-33.96851563 90.88415039 -34.05617188 91.45262695 -34.14648438 92.03833008 C-35.08163255 94.93828425 -36.5992883 96.48865945 -38.63085938 98.75317383 C-50.71095402 113.43113829 -52.10412941 134.76030887 -50.57226562 152.98754883 C-48.47060719 170.91674118 -43.2470911 189.05433261 -28.86132812 200.99145508 C-17.74471094 209.06352125 -5.27117298 210.74211249 8.11914062 209.31567383 C10.83594795 208.76478469 13.44829271 208.07100412 16.11914062 207.31567383 C16.89625447 204.54447304 17.25763474 202.04297303 17.30859375 199.16821289 C17.32531128 198.35926575 17.34202881 197.5503186 17.35925293 196.71685791 C17.37282837 195.84712341 17.38640381 194.97738892 17.40039062 194.08129883 C17.42800476 192.71506378 17.42800476 192.71506378 17.45617676 191.32122803 C17.51482599 188.4027748 17.56754824 185.48425974 17.61914062 182.56567383 C17.73758336 176.01147373 17.86818918 169.45810487 18.04833984 162.90527344 C18.09443385 161.21934543 18.13662805 159.53330482 18.17431641 157.84716797 C18.22934228 155.62185687 18.31029763 153.39917923 18.40039062 151.17504883 C18.44228516 149.93722656 18.48417969 148.6994043 18.52734375 147.42407227 C19.22303246 143.76998455 20.2195849 142.57163264 23.11914062 140.31567383 C25.45117188 139.30395508 25.45117188 139.30395508 27.93164062 138.62817383 C29.14787109 138.28206055 29.14787109 138.28206055 30.38867188 137.92895508 C45.34285337 134.5701475 66.45752425 134.27573408 80.11914062 142.31567383 C83.11914062 144.31567383 83.11914062 144.31567383 83.63388062 146.79292297 C84.13423211 155.6380521 84.18253621 164.44223896 84.03320312 173.29614258 C84.01194126 174.82381522 83.99118655 176.35149499 83.97090149 177.87918091 C83.90398597 182.7539948 83.82512501 187.62857596 83.74414062 192.50317383 C83.72375669 193.74162363 83.72375669 193.74162363 83.70296097 195.00509262 C83.66160119 197.51706981 83.62002342 200.0290433 83.57836914 202.54101562 C83.56465806 203.36865701 83.55094698 204.19629839 83.53682041 205.04901981 C83.46806995 209.18977446 83.39819353 213.33050415 83.32637024 217.47120667 C83.18666521 225.7077138 83.09083921 233.9403124 83.10321045 242.17832947 C83.10843563 246.11934925 83.08738766 250.05995878 83.06195068 254.00088501 C83.05843871 255.73852279 83.0686726 257.47624812 83.09332275 259.2137146 C83.26706772 271.86088725 83.26706772 271.86088725 80.51538086 275.34814453 C78.410404 276.74901411 76.52383536 277.55363221 74.11914062 278.31567383 C72.99894531 278.79133789 71.87875 279.26700195 70.72460938 279.75708008 C55.8730928 284.62837752 40.66389303 287.69287001 25.11914062 289.31567383 C24.04921875 289.42782227 22.97929687 289.5399707 21.87695312 289.65551758 C-17.78482415 292.99883137 -57.8957011 290.09631238 -89.80664062 264.08129883 C-90.83337891 263.20731445 -90.83337891 263.20731445 -91.88085938 262.31567383 C-92.72003906 261.60926758 -93.55921875 260.90286133 -94.42382812 260.17504883 C-99.11766039 256.12889265 -99.11766039 256.12889265 -100.88085938 254.31567383 C-100.88085938 253.65567383 -100.88085938 252.99567383 -100.88085938 252.31567383 C-101.54085937 252.31567383 -102.20085937 252.31567383 -102.88085938 252.31567383 C-104.52279764 250.47841206 -106.02089107 248.64999538 -107.50585938 246.69067383 C-108.17355347 245.81258057 -108.17355347 245.81258057 -108.85473633 244.91674805 C-113.47093353 238.7139651 -117.31734382 232.17059549 -120.88085938 225.31567383 C-121.19152344 224.72560547 -121.5021875 224.13553711 -121.82226562 223.52758789 C-142.17770283 184.32846665 -142.99197503 131.06932435 -130.41601562 89.28442383 C-125.04224891 72.51638672 -117.19171107 56.86428395 -105.88085938 43.31567383 C-105.14351563 42.4159082 -104.40617187 41.51614258 -103.64648438 40.58911133 C-99.73048141 35.97280126 -99.73048141 35.97280126 -97.88085938 34.31567383 C-96.89085937 34.31567383 -95.90085937 34.31567383 -94.88085938 34.31567383 C-94.8009375 33.73172852 -94.72101563 33.1477832 -94.63867188 32.54614258 C-91.74910766 24.0412912 -76.61578048 17.39163074 -68.88085938 13.31567383 C-60.65753176 9.32587053 -52.29017456 6.7303372 -43.44335938 4.56567383 C-42.2297876 4.26741699 -42.2297876 4.26741699 -40.99169922 3.96313477 C-27.4029716 0.84598812 -13.88925499 -0.03676567 0 0 Z " fill="#FFFFFF" transform="translate(413.880859375,114.684326171875)"/>
</svg>
