<?xml version="1.0" encoding="UTF-8"?>
<svg version="1.1" xmlns="http://www.w3.org/2000/svg" width="500" height="500">
<path d="M0 0 C1.28922363 0.10501831 1.28922363 0.10501831 2.60449219 0.2121582 C10.30484031 0.95451203 20.76332514 2.08150901 26.1875 8.1875 C27.74091802 12.22438621 28.44342834 16.38369709 29.20654297 20.63110352 C29.45127287 21.87766252 29.69600277 23.12422152 29.94814873 24.40855503 C30.46071061 27.03103798 30.96457574 29.6534167 31.45381927 32.28017044 C32.14494086 35.96084473 32.86715361 39.63349722 33.60455322 43.30514526 C35.0593797 50.56119869 36.47269708 57.82498978 37.8828125 65.08984375 C38.40224052 67.75730475 38.9224368 70.42461579 39.44259644 73.0919342 C40.52155 78.62679357 41.59864301 84.16201202 42.67431641 89.69750977 C44.17721201 97.43150792 45.68363885 105.1648152 47.19071984 112.89799869 C48.38044682 119.00347814 49.5691938 125.10914846 50.7578125 131.21484375 C51.12681356 133.11022542 51.12681356 133.11022542 51.5032692 135.04389763 C54.43058436 150.08564783 57.33457189 165.13145413 60.1875 180.1875 C61.57693678 175.54121961 62.6772964 170.97218431 63.53327942 166.19125366 C63.65396701 165.52318148 63.7746546 164.8551093 63.89899939 164.16679251 C64.29900857 161.94820102 64.69401829 159.72874913 65.08911133 157.50927734 C65.37649696 155.91040185 65.66425184 154.31159269 65.9523468 152.71284485 C66.57054103 149.27994882 67.18688491 145.84672748 67.80201149 142.41328049 C68.7756962 136.98294957 69.75822145 131.55424211 70.74284363 126.12588501 C70.90920486 125.20849371 71.07556609 124.29110242 71.24696857 123.34591138 C71.58704012 121.47069068 71.92713135 119.59547355 72.26724184 117.7202599 C74.55772932 105.08940497 76.84226276 92.45754494 79.1027832 79.82128906 C80.62961894 71.28669991 82.17042145 62.75476347 83.72740954 54.22562182 C84.55018504 49.71526833 85.36569508 45.20386518 86.16410255 40.68912888 C86.91463522 36.44568843 87.68349046 32.20598312 88.46650505 27.96842003 C88.75033048 26.41403722 89.02739068 24.85840137 89.29712677 23.30151176 C89.66679181 21.17379693 90.06066393 19.05194822 90.46076965 16.92977905 C90.78180522 15.14730302 90.78180522 15.14730302 91.10932636 13.32881737 C92.69240748 8.71642467 95.40595643 6.10033425 99.7109375 3.89453125 C120.18955533 -2.52958311 142.87079551 -1.33292307 164 0.0625 C165.34047955 0.14218397 166.68097436 0.2216115 168.02148438 0.30078125 C175.22391776 0.76545437 182.16389512 1.49718907 189.1875 3.1875 C190.57375583 7.3462675 189.26592233 10.52009585 188.13989258 14.609375 C187.9083762 15.47610871 187.67685982 16.34284243 187.43832779 17.2358408 C186.66082864 20.13858945 185.87139503 23.03795728 185.08203125 25.9375 C184.52955818 27.99100399 183.97785156 30.04471431 183.42686462 32.09861755 C182.24568048 36.49544311 181.0592872 40.89081696 179.86877441 45.28512573 C177.98738067 52.22964761 176.11722912 59.17716455 174.24902344 66.12524414 C172.04519919 74.3188608 169.83890891 82.51180416 167.62901497 90.7037859 C163.28910832 106.79273218 158.98612496 122.89130633 154.70202637 138.99518967 C153.33236326 144.14346588 151.95976784 149.29095301 150.58544922 154.43798828 C146.82998132 168.50490218 143.08257245 182.57385551 139.35780144 196.64893436 C137.23289089 204.67777315 135.10272582 212.70520715 132.96930122 220.73178768 C131.67426337 225.60540027 130.38211081 230.47973833 129.09680176 235.35592651 C127.89888232 239.90057644 126.69378507 244.44326146 125.48322487 248.98456001 C125.0379588 250.66025501 124.59539522 252.33667075 124.15570641 254.01383781 C123.55166098 256.31638019 122.93803594 258.61616296 122.32202148 260.91552734 C122.14910961 261.58407966 121.97619774 262.25263197 121.79804611 262.94144344 C120.49859093 267.73201534 119.01617668 271.73531558 115.0625 274.875 C108.41991045 277.90748653 101.01907881 278.58206967 93.8125 279.25 C92.94890869 279.33233887 92.08531738 279.41467773 91.19555664 279.49951172 C64.60779811 281.94230587 33.92376429 284.59804389 8.1875 276.1875 C7.52888474 275.98626022 6.87026947 275.78502045 6.19169617 275.5776825 C3.16450236 273.47791207 2.66531454 270.56026066 1.72973633 267.16333008 C1.52089971 266.45050527 1.31206308 265.73768045 1.09689808 265.00325489 C0.44049539 262.73643402 -0.18972638 260.46377275 -0.8125 258.1875 C-1.00631382 257.48525173 -1.20012764 256.78300346 -1.39981461 256.05947495 C-2.81211479 250.91040125 -4.15360607 245.7438518 -5.48828125 240.57421875 C-5.930324 238.87460216 -6.37275429 237.17508633 -6.8155365 235.47566223 C-7.7612521 231.84336797 -8.70471799 228.21050025 -9.6463623 224.57714844 C-11.93912167 215.73164061 -14.24461989 206.88944784 -16.54874039 198.04689407 C-17.35309496 194.9595937 -18.15701338 191.87217996 -18.96090698 188.78475952 C-24.36818248 168.02430277 -29.83376344 147.27933651 -35.3102684 126.53705215 C-36.31075715 122.74706929 -37.31056342 118.95690653 -38.31036854 115.16674328 C-42.91083185 97.72745909 -47.51773224 80.28990698 -52.14251709 62.85705566 C-53.72937758 56.87537047 -55.31404003 50.89310362 -56.89818192 44.91069794 C-58.15555453 40.16335295 -59.41626955 35.41691258 -60.67963028 30.67115784 C-61.44467675 27.79437683 -62.20671825 24.91680638 -62.96790314 22.03900146 C-63.48548071 20.08603538 -64.00681612 18.13406643 -64.52825928 16.18212891 C-64.8321759 15.03083496 -65.13609253 13.87954102 -65.44921875 12.69335938 C-65.71436279 11.69542358 -65.97950684 10.69748779 -66.25268555 9.66931152 C-66.8125 7.1875 -66.8125 7.1875 -66.8125 4.1875 C-62.08690137 2.40888886 -57.49571941 1.6271205 -52.5 1.125 C-51.71455811 1.04266113 -50.92911621 0.96032227 -50.11987305 0.87548828 C-33.39260065 -0.81481138 -16.76903877 -1.46042439 0 0 Z " fill="#000000" transform="translate(71.8125,119.8125)"/>
<path d="M0 0 C3.11465615 3.11465615 2.42783143 6.88103761 2.4375 11.0625 C2.42398343 21.10801833 0.58098432 29.65983854 -3 39 C-3.2676416 39.70705078 -3.5352832 40.41410156 -3.81103516 41.14257812 C-8.12662429 52.29687177 -14.69339024 66.34669512 -26 72 C-31.1283366 72.50104438 -34.04860283 71.22530964 -38.5 68.75 C-55.49813363 59.6992534 -74.4844294 57.36211277 -93 63 C-97.13846555 64.77565742 -101.06624373 66.81390325 -105 69 C-106.32975647 69.67377293 -107.66167801 70.34340541 -109 71 C-109 71.66 -109 72.32 -109 73 C-109.70125 73.680625 -110.4025 74.36125 -111.125 75.0625 C-124.15657718 87.83639062 -126.7404146 106.49169391 -127.25 123.9375 C-127.20117268 125.62635067 -127.11191349 127.3141542 -127 129 C-126.9383667 129.95229492 -126.9383667 129.95229492 -126.87548828 130.92382812 C-125.81617374 145.85576339 -122.84594453 159.56110114 -114 172 C-113.55011719 172.63292969 -113.10023438 173.26585937 -112.63671875 173.91796875 C-105.95939908 182.43860484 -95.56267778 188.69712208 -85 191 C-81.8987101 191.23942582 -78.79716011 191.23093695 -75.6875 191.25 C-74.85798828 191.270625 -74.02847656 191.29125 -73.17382812 191.3125 C-67.67904364 191.34719477 -63.83484674 190.67699147 -59 188 C-56.71341922 184.57012882 -56.73468937 183.25493619 -56.68457031 179.21508789 C-56.65378387 177.43292625 -56.65378387 177.43292625 -56.62237549 175.61476135 C-56.60777283 174.33036667 -56.59317017 173.04597198 -56.578125 171.72265625 C-56.53636769 169.70900483 -56.49457579 167.69535341 -56.45072556 165.68174648 C-56.34436985 160.71201167 -56.25590743 155.74225931 -56.19726562 150.77172852 C-56.16348053 147.9829482 -56.11412207 145.19527919 -56.04754639 142.40708923 C-55.98548337 139.77991211 -55.94674242 137.15206146 -55.93341064 134.52418518 C-55.69311406 125.88457351 -55.69311406 125.88457351 -53.67718506 123.31178284 C-43.06716605 116.02852977 -24.08873018 117.37311519 -11.875 118.75 C-10.86457642 118.86069824 -10.86457642 118.86069824 -9.83374023 118.97363281 C-3.65825667 119.79243063 1.82494616 121.54996411 7 125 C8.14110136 129.44031303 8.09818709 133.77877817 8.03759766 138.3425293 C8.0255448 139.4118005 8.0255448 139.4118005 8.01324844 140.50267315 C7.98532897 142.859951 7.94973251 145.21704647 7.9140625 147.57421875 C7.89272312 149.24402323 7.8718276 150.91383343 7.85134888 152.58364868 C7.78353242 157.95171656 7.70464657 163.31959677 7.625 168.6875 C7.59844114 170.51663107 7.57195187 172.34576315 7.54553223 174.17489624 C7.44024113 181.43590303 7.33398979 188.69689006 7.2208252 195.95777893 C7.08400703 204.79243567 6.96671972 213.62609809 6.90670776 222.46165466 C6.87729051 226.51952688 6.83030414 230.57703888 6.77801514 234.63467407 C6.75943701 236.41046389 6.74929549 238.18636333 6.74786377 239.96224976 C6.74482972 242.34681584 6.71245348 244.72910714 6.671875 247.11328125 C6.65785645 249.02814331 6.65785645 249.02814331 6.64355469 250.98168945 C6 254 6 254 3.74658203 255.80566406 C2.84020996 256.19979492 1.93383789 256.59392578 1 257 C-0.13091064 257.52484985 -0.13091064 257.52484985 -1.28466797 258.06030273 C-26.19466409 268.05402422 -52.32240289 270.24391249 -78.875 270.375 C-80.24188461 270.38705475 -80.24188461 270.38705475 -81.63638306 270.39935303 C-97.05812972 270.50248994 -112.4648604 269.54565018 -127.125 264.3125 C-127.8581543 264.05758789 -128.59130859 263.80267578 -129.34667969 263.54003906 C-158.29471237 253.1187473 -181.05530177 233.45694776 -195 206 C-195.50442627 205.02716064 -195.50442627 205.02716064 -196.01904297 204.03466797 C-204.83947599 186.73767037 -209.31784211 167.29020019 -211 148 C-211.10957031 146.74832031 -211.21914063 145.49664062 -211.33203125 144.20703125 C-214.64021206 99.52453581 -207.44660786 57.09993369 -178.25 21.9375 C-177.54170044 21.07777588 -177.54170044 21.07777588 -176.8190918 20.20068359 C-174.58989205 17.57186144 -173.33187665 16.11062555 -170 15 C-169.67 14.01 -169.34 13.02 -169 12 C-166.51500175 9.6875432 -163.69680183 7.78479998 -160.9375 5.8125 C-159.72054443 4.94238281 -159.72054443 4.94238281 -158.47900391 4.0546875 C-141.12914077 -8.08649863 -122.79845926 -13.94625797 -102 -17 C-100.80890625 -17.18691406 -99.6178125 -17.37382813 -98.390625 -17.56640625 C-68.17037957 -21.20784283 -24.94121211 -19.46213576 0 0 Z " fill="#000000" transform="translate(489,134)"/>
</svg>
